<?xml version="1.0" encoding="UTF-8"?>
<svg width="123px" height="120px" viewBox="0 0 123 120" version="1.1" xmlns="http://www.w3.org/2000/svg" xmlns:xlink="http://www.w3.org/1999/xlink">
    <!-- Generator: Sketch 46.2 (44496) - http://www.bohemiancoding.com/sketch -->
    <title>confetti3</title>
    <desc>Created with Sketch.</desc>
    <defs></defs>
    <g id="hackathon" stroke="none" stroke-width="1" fill="none" fill-rule="evenodd" opacity="0.800000012">
        <g id="Settings---Palm-Copy-8" transform="translate(-155.000000, -72.000000)" fill-rule="nonzero" fill="#000000">
            <g id="confetti3" transform="translate(155.000000, 72.000000)">
                <path d="M121.211595,57.0909888 C119.866047,56.7124264 118.724754,57.5599177 118.265659,58.8030679 C117.477515,60.9371831 114.512968,62.2135491 112.3683,62.4997912 C109.138175,62.9311081 105.99061,61.48329 103.13678,60.1282807 C99.7513163,58.5212221 96.2620555,56.9874336 92.4561532,57.020161 C88.6263893,57.0531325 84.8877763,58.6191599 81.7688453,60.8206836 C78.2578705,63.29868 75.4374463,66.532336 72.6778689,69.8233868 C71.8360367,70.8274321 71.7141046,72.3035814 72.6778689,73.2900418 C73.5397447,74.1722144 75.2188754,74.2989717 76.064764,73.2900418 C80.4958366,68.0048217 86.3359281,61.0326786 93.9520279,61.9922733 C97.5479494,62.445327 100.768769,64.4993336 104.069286,65.8704623 C107.461907,67.2799357 111.18334,67.9459614 114.779023,66.9787954 C118.343209,66.0199334 121.554484,63.7058178 122.883806,60.1060554 C123.341707,58.8677899 122.376272,57.4185064 121.211595,57.0909888 Z" id="Shape"></path>
                <path d="M49.3032977,31.5460974 C51.6170282,28.3963989 54.0831542,25.0321987 54.7873437,21.1189223 C55.4703197,17.3228429 54.4713362,13.4999208 52.3199985,10.3037269 C49.8387548,6.61765446 46.2373427,3.96502444 42.6825027,1.3526584 C41.6230488,0.574221256 39.9481605,1.18369344 39.3341892,2.21545819 C38.6031782,3.44398923 39.1503392,4.72620559 40.2122315,5.50656006 C45.6818914,9.52600876 52.5216483,15.1183894 49.2323424,22.6029379 C46.3109803,29.2498517 38.7102208,34.5963344 39.6604377,42.5686044 C40.1183559,46.4099808 42.4374507,49.8832293 46.3885191,50.9094818 C49.4369182,51.7011006 50.7370352,47.061874 47.6898554,46.2702552 C45.2210472,45.629147 44.2459594,42.9781947 44.5097866,40.6534286 C44.8933357,37.2779641 47.3362977,34.2238925 49.3032977,31.5460974 Z" id="Shape"></path>
                <path d="M84.9339611,37.2430724 C84.5380967,33.9957718 82.701753,31.054655 79.9576932,29.2681772 C78.4287036,28.2729581 76.7652466,27.7491843 75.0777167,27.6150768 C75.9122416,24.8616131 77.4743009,22.3315809 79.7578158,20.5803945 C80.8024308,19.7794002 81.3578081,18.4775106 80.6334347,17.2381721 C80.0321002,16.2091219 78.3472451,15.5544046 77.2943626,16.361727 C73.3984543,19.3495746 70.7963999,23.6349308 69.8641248,28.372261 C66.6784866,29.5320112 63.8454303,31.8741469 62.2128546,34.7833797 C57.8247906,42.6022624 60.5975432,51.7427492 65.012598,58.8506916 C66.6677876,61.5153181 70.8922049,59.0651176 69.2272889,56.3849141 C66.347546,51.7485905 63.9200804,46.1903081 65.1774604,40.6252107 C65.7877918,37.9245626 67.3357479,35.3933134 69.5465579,33.8942784 C69.759566,36.5749687 70.5119028,39.2218278 71.8208327,41.5719953 C73.6377236,44.8338993 77.086704,47.5418491 80.8975063,45.7178894 C83.9739657,44.2456272 85.3256917,40.4582457 84.9339611,37.2430724 Z M79.5015252,40.6118243 C78.1731425,42.5090443 76.7774046,40.4402348 76.0355237,39.1057311 C75.0254373,37.2888296 74.479057,35.2173429 74.3815498,33.1502372 C74.3715803,32.9360546 74.3703645,32.7204116 74.3689055,32.5045253 C74.4892697,32.5093931 74.6096339,32.5147476 74.7312138,32.52497 C78.3078531,32.8255558 81.7799337,37.3577088 79.5015252,40.6118243 Z" id="Shape"></path>
                <path d="M94.5000484,44 C91.1694876,44 91.1638147,49 94.5000484,49 C97.8306091,48.9997509 97.8360242,44 94.5000484,44 Z" id="Shape"></path>
                <path d="M96.4999516,37 C93.1693909,37 93.1639758,42 96.4999516,42 C99.8305124,42 99.8361853,37 96.4999516,37 Z" id="Shape"></path>
                <path d="M101.5,43 C98.1693748,43 98.1639596,48 101.5,48 C104.830625,48 104.83604,43 101.5,43 Z" id="Shape"></path>
                <path d="M21.4999517,23 C18.1695198,23 18.163847,28 21.4999517,28 C24.8306414,28 24.8360564,23 21.4999517,23 Z" id="Shape"></path>
                <path d="M24.4998549,16 C21.169423,16 21.1640081,21 24.4998549,21 C27.8305447,20.9997509 27.8362175,16 24.4998549,16 Z" id="Shape"></path>
                <path d="M29.5,22 C26.1693748,22 26.1639596,27 29.5,27 C32.8306252,27 32.8360404,22 29.5,22 Z" id="Shape"></path>
                <path d="M68.2914781,83.8339945 L36.1658193,51.7085011 C35.6158016,51.1587273 34.8351236,50.9063761 34.0669789,51.0314671 C33.2993162,51.1563171 32.6381863,51.6424608 32.2908701,52.3385356 L29.4024338,58.1226091 L0.254872332,116.500103 C-0.210063716,117.431175 -0.0273672287,118.555307 0.708721258,119.291392 C1.17293423,119.755844 1.79188487,120 2.4197534,120 C2.78659252,120 3.15632394,119.916606 3.49954267,119.744998 L67.6614404,87.7089237 C68.3575188,87.3616093 68.843906,86.7007239 68.9685156,85.9328241 C69.0936073,85.1649243 68.8414958,84.3842504 68.2914781,83.8339945 Z M7.81942281,112.180245 L18.2740967,91.241841 L21.8038989,105.198045 L7.81942281,112.180245 Z M47.7422207,92.2469075 L43.6231139,82.2080524 C43.1157575,80.9720857 41.7031136,80.3810969 40.4668995,80.8882096 C39.2309264,81.3953223 38.6399346,82.808441 39.1470499,84.0444077 L43.4018535,94.4139466 L26.2348913,102.985212 L21.5864949,84.6069558 L31.3523212,65.0476862 L34.0395021,71.5967672 C34.4234539,72.5321781 35.3263313,73.0983414 36.2783776,73.0983414 C36.5842376,73.0983414 36.8951591,73.0400138 37.1957165,72.91661 C38.4316895,72.4094973 39.0226813,70.9963786 38.515566,69.7604119 L34.2231627,59.2988021 L35.1192913,57.5043848 L62.4958056,84.8807581 L47.7422207,92.2469075 Z" id="Shape"></path>
                <path d="M112.998769,78 C107.485399,78 103,82.4853991 103,87.9987689 C103,93.5133698 107.485399,98 112.998769,98 C118.513616,98 123,93.5133698 123,87.9987689 C123,82.4853991 118.513616,78 112.998769,78 Z M112.998769,93.0573694 C110.210814,93.0573694 107.942631,90.7879549 107.942631,87.9987689 C107.942631,85.210814 110.21106,82.9426306 112.998769,82.9426306 C115.787955,82.9426306 118.057369,85.210814 118.057369,87.9987689 C118.057369,90.7879549 115.788201,93.0573694 112.998769,93.0573694 Z" id="Shape"></path>
                <path d="M110.299993,10.7409649 L100.688469,0.729159433 C100.240131,0.26239819 99.6322682,0 98.9984524,0 C98.3646366,0 97.7570115,0.26239819 97.3086737,0.729407446 L87.6995308,10.7412129 C86.7666644,11.7131774 86.7669025,13.2893027 87.6997689,14.2615153 L97.3089118,24.2708406 C97.7755831,24.7569469 98.3872558,25 98.9986905,25 C99.6101251,25 100.221798,24.7569469 100.688231,24.2710886 L110.299755,14.2617633 C110.748331,13.795002 111,13.1618238 111,12.5013641 C110.999762,11.8411524 110.747855,11.2079741 110.299993,10.7409649 Z M98.9991667,18.990635 L92.769343,12.5011161 L98.9991667,6.01010903 L105.230657,12.5011161 L98.9991667,18.990635 Z" id="Shape"></path>
                <path d="M38.5,74 C35.1693748,74 35.1639596,79 38.5,79 C41.8306252,79 41.8360404,74 38.5,74 Z" id="Shape"></path>
            </g>
        </g>
    </g>
</svg>